<svg width="24" height="22" viewBox="0 0 24 22" fill="none" xmlns="http://www.w3.org/2000/svg">
<path d="M22 3.5H10.6833L8.75831 0.849996C8.60316 0.637666 8.39996 0.465065 8.16533 0.346301C7.9307 0.227537 7.67129 0.16598 7.40831 0.166662H1.99998C1.55795 0.166662 1.13403 0.342257 0.821468 0.654817C0.508908 0.967378 0.333313 1.3913 0.333313 1.83333V20.1667C0.333313 20.6087 0.508908 21.0326 0.821468 21.3452C1.13403 21.6577 1.55795 21.8333 1.99998 21.8333H22C22.442 21.8333 22.8659 21.6577 23.1785 21.3452C23.4911 21.0326 23.6666 20.6087 23.6666 20.1667V5.16666C23.6666 4.72463 23.4911 4.30071 23.1785 3.98815C22.8659 3.67559 22.442 3.5 22 3.5ZM22 20.1667H1.99998V6.83333H8.09165C8.53367 6.83333 8.9576 6.65773 9.27016 6.34517C9.58272 6.03261 9.75831 5.60869 9.75831 5.16666H1.99998V1.83333H7.40831L9.58331 4.825C9.66089 4.93116 9.76249 5.01746 9.87981 5.07684C9.99712 5.13622 10.1268 5.167 10.2583 5.16666H22V20.1667Z" fill="black"/>
</svg>
